# xmcd
#
# Track frame offsets:
#	150
#	11260
#	22598
#	34134
#	45813
#	55967
#	66910
#	77640
#	90391
#	101325
#	113666
#	124120
#	135655
#	146269
#	157006
#	171324
#	183115
#	196645
#	207771
#	219163
#	230327
#	239517
#
# Disc length: 3347 seconds
#
# Revision: 1
# Processed by: cddbd v1.5.2PL0 Copyright (c) Steve Scherf et al.
# Submitted via: audiograbber 1.83.01
#
DISCID=0b0d1116
DTITLE=Wanda Jackson - Four Classic Albums Plus Bonus Singles and Live Tracks  (C
DTITLE=D3)
DYEAR=1954
DGENRE=Oldies
TTITLE0=Lovin' Country Style
TTITLE1=You Can't Have My Love
TTITLE2=The Right To Love
TTITLE3=If You Knew What I Know
TTITLE4=If You Don't Somebody Else Will
TTITLE5=You'd Be The First To Know
TTITLE6=Tears At The Grand Ole Opry
TTITLE7=Nobody's Darling But Mine
TTITLE8=It's The Same Wherever You Go
TTITLE9=Don't Do The Things He'd Do
TTITLE10=Wasted
TTITLE11=I Cried Again
TTITLE12=The Heart You Could Have Had
TTITLE13=You Won't Forget
TTITLE14=Half As Good A Girl
TTITLE15=Silver Threads And Golden Needles
TTITLE16=Crying Through The Night
TTITLE17=Let Me Explain
TTITLE18=No Wedding Bells For Joe
TTITLE19=Just A Queen For A Day
TTITLE20=Our Song
TTITLE21=Sinful Heart
EXTD=
EXTT0=
EXTT1=
EXTT2=
EXTT3=
EXTT4=
EXTT5=
EXTT6=
EXTT7=
EXTT8=
EXTT9=
EXTT10=
EXTT11=
EXTT12=
EXTT13=
EXTT14=
EXTT15=
EXTT16=
EXTT17=
EXTT18=
EXTT19=
EXTT20=
EXTT21=
PLAYORDER=
